PathFileType	4	(X/Y/Z)	s04c0203.trc
DataRate	CameraRate	NumFrames	NumMarkers	Units	OrigDataRate	OrigDataStartFrame	OrigNumFrames
200	200	4	50	mm	200	500	2000
Frame#	Time	racr			lacr			c7			jug			rlel			rdr			llel			ldr			s2			lic			ric			lasi			rasi			rpsi			lpsi			rgt			lgt			rth1			rth2			rth3			rth4			rlfc			rmfc			rsh1			rsh2			rsh3			rsh4			rlmal			rmmal			rcal			rtoe			rmt5			lth1			lth2			lth4			lth3			llfc			lmfc			lsh1			lsh2			lsh3			lsh4			llmal			lmmal			lcal			ltoe			lmt5			SBIKE			LBIKE			RBIKE			
		X1	Y1	Z1	X2	Y2	Z2	X3	Y3	Z3	X4	Y4	Z4	X5	Y5	Z5	X6	Y6	Z6	X7	Y7	Z7	X8	Y8	Z8	X9	Y9	Z9	X10	Y10	Z10	X11	Y11	Z11	X12	Y12	Z12	X13	Y13	Z13	X14	Y14	Z14	X15	Y15	Z15	X16	Y16	Z16	X17	Y17	Z17	X18	Y18	Z18	X19	Y19	Z19	X20	Y20	Z20	X21	Y21	Z21	X22	Y22	Z22	X23	Y23	Z23	X24	Y24	Z24	X25	Y25	Z25	X26	Y26	Z26	X27	Y27	Z27	X28	Y28	Z28	X29	Y29	Z29	X30	Y30	Z30	X31	Y31	Z31	X32	Y32	Z32	X33	Y33	Z33	X34	Y34	Z34	X35	Y35	Z35	X36	Y36	Z36	X37	Y37	Z37	X38	Y38	Z38	X39	Y39	Z39	X40	Y40	Z40	X41	Y41	Z41	X42	Y42	Z42	X43	Y43	Z43	X44	Y44	Z44	X45	Y45	Z45	X46	Y46	Z46	X47	Y47	Z47	X48	Y48	Z48	X49	Y49	Z49	X50	Y50	Z50	
500	2.5000	472.170470	1389.688636	-185.606188	481.099914	1367.994067	-442.142957	454.661667	1434.287825	-314.837831	434.854565	1280.340044	-313.272687	448.467741	1116.186420	-9.567621	663.392120	937.942872	-110.877671	445.971144	1111.054114	-590.795205	657.373001	942.738616	-487.491135	-105.106551	1180.000661	-289.472174	42.866812	1197.514583	-447.710465	57.138971	1195.668940	-126.812633	88.249980	1159.725072	-406.804139	100.939796	1148.967013	-173.589977	-74.166654	1224.926800	-245.573426	-79.766243	1231.582348	-319.975138	9.274109	1131.074390	-109.025708	20.603295	1119.297253	-473.701291	122.210160	1008.662220	-101.812018	190.080597	953.906823	-114.784719	225.806709	876.150930	-114.621258	213.380605	973.493099	-135.155467	285.280852	744.673982	-136.226766	260.146098	726.344744	-248.041241	205.738448	648.288795	-108.671656	170.664298	565.451850	-123.548355	98.330288	516.658954	-129.834577	195.853568	549.154683	-147.326915	13.875189	387.335886	-133.508938	39.837200	383.605988	-218.837733	-58.993204	385.260169	-178.489372	201.264877	226.879394	-158.225000	127.555138	240.464934	-110.292462	88.336160	1059.657922	-479.733990	172.152546	1037.958551	-482.787717	189.962575	1069.044077	-474.503496	235.504896	975.227731	-484.339942	361.095730	873.638465	-462.954991	398.760667	856.995396	-353.792131	350.407163	753.868366	-481.679556	348.663376	668.874898	-461.061903	305.602864	591.633249	-457.153974	377.606726	664.995131	-434.125312	256.832325	453.980296	-448.986113	258.756590	463.065248	-361.411584	180.037116	422.924127	-407.526343	481.211740	438.666561	-420.768786	413.015299	394.219671	-480.235564	-184.901027	929.402730	-286.400051	-17.415828	79.091725	-485.506958	-17.454197	79.269234	-84.761747	
501	2.5050	472.899340	1389.971567	-185.967876	481.884294	1368.078414	-442.558123	455.458055	1434.434670	-315.234665	435.809248	1280.510829	-313.511752	448.891746	1116.973630	-9.292612	662.954132	938.093178	-110.759586	446.082236	1110.983795	-591.072258	657.537069	942.890981	-487.996555	-104.319493	1180.285082	-289.481594	43.582823	1197.355357	-447.824571	57.888835	1196.204198	-126.952498	88.757002	1159.018287	-406.075725	102.854321	1149.550303	-172.932551	-73.541841	1225.424316	-245.613507	-78.848521	1231.845655	-320.076399	10.030846	1131.949713	-108.816924	21.343060	1118.059877	-473.190474	123.535549	1010.339122	-101.635227	191.833750	955.965859	-114.433273	228.114990	878.524456	-114.248595	214.961061	975.954176	-134.789988	288.158963	747.423916	-135.434325	262.998964	729.118582	-247.550101	207.451685	651.845582	-108.259562	171.488350	569.507038	-123.017367	98.420166	521.693888	-129.487251	196.412978	552.854685	-146.862159	12.518744	393.704266	-133.257560	38.337120	389.549319	-218.722393	-60.717157	392.000479	-178.343071	198.605461	232.375876	-158.139149	124.960380	246.238522	-110.312205	88.809791	1057.262604	-479.249526	172.309832	1034.374595	-482.250880	191.178042	1065.548702	-474.771883	234.797840	970.705099	-483.283420	359.218892	867.854233	-461.894237	396.246584	851.761316	-352.820346	349.302643	747.672891	-480.774542	348.456992	662.618423	-460.352455	306.204005	585.030216	-456.776465	377.350469	659.059935	-433.393654	258.931053	446.932329	-449.248339	260.488356	455.828881	-361.596596	182.773651	414.642534	-407.483122	483.377330	433.272389	-420.366008	415.686096	388.356430	-480.137995	-184.862119	929.441448	-286.393762	-17.453226	79.040388	-485.442928	-17.455844	79.271858	-84.760673	
502	2.5100	473.554593	1390.347217	-186.241437	482.671878	1368.114695	-442.989418	456.247892	1434.597373	-315.530941	436.770127	1280.758737	-313.642098	449.192896	1117.713087	-9.074815	662.631819	938.354479	-110.556079	446.016445	1110.936270	-591.397878	657.657263	942.975414	-488.483520	-103.605043	1180.568544	-289.415936	43.827426	1196.720117	-446.661941	58.647884	1196.690154	-127.118885	89.268907	1158.218042	-405.270066	103.461933	1149.830591	-173.069799	-72.899758	1225.874731	-245.624554	-77.962142	1232.018327	-320.237525	10.820297	1132.655752	-108.606105	22.147478	1116.790749	-472.671448	124.925941	1011.769200	-101.458258	193.721040	958.064360	-114.042171	230.410857	880.852866	-113.812241	216.864867	978.216927	-133.997627	291.258338	750.263068	-134.610784	266.098722	731.946309	-246.856469	209.345629	655.637767	-107.719535	171.416728	573.435789	-122.945165	98.653685	526.785902	-129.143542	197.030978	556.738595	-146.433595	11.230100	399.997841	-133.084955	37.022442	395.695722	-218.585635	-62.227770	398.949436	-178.312159	196.261454	237.819482	-158.111308	122.577726	251.920297	-110.240993	89.385125	1054.762661	-478.821150	172.558940	1030.702566	-481.783129	191.878209	1061.835818	-474.430262	234.168185	966.285128	-482.291555	357.406955	861.971982	-460.879210	393.687886	846.043245	-351.685830	348.061422	741.499370	-479.958585	348.099759	656.429466	-459.711124	306.536731	578.504640	-456.642940	376.950487	653.067401	-432.691510	261.093154	439.774643	-449.444402	262.155883	448.907944	-361.919873	185.394285	406.482132	-407.361115	485.404337	427.707936	-420.006481	418.171161	382.424148	-479.955951	-184.789889	929.483042	-286.386958	-17.444241	79.052125	-485.426004	-17.454326	79.262768	-84.755696	
503	2.5150	474.255297	1390.758407	-186.522920	483.355496	1368.239218	-443.440277	457.010522	1434.886846	-315.914815	437.677705	1281.009724	-313.770379	449.420021	1118.570385	-8.825994	662.419550	938.708651	-110.317523	445.958727	1110.937391	-591.691219	657.744089	943.033014	-488.927292	-102.746086	1180.733745	-289.505111	44.496242	1196.354312	-446.741918	59.443909	1197.178267	-127.297511	89.783380	1157.319353	-404.385624	104.169840	1149.987508	-173.102362	-72.207977	1226.206860	-245.672492	-77.044624	1232.031952	-320.213340	11.642320	1133.346447	-108.429338	22.943200	1115.460413	-472.119327	126.264402	1013.362057	-101.239913	195.252432	959.551659	-114.439021	232.730769	883.147279	-113.279120	218.700611	980.210472	-133.637002	294.444522	753.118851	-133.849532	269.404580	734.927499	-246.230492	211.338913	659.138646	-107.293662	172.538567	577.728243	-122.435546	99.231449	532.052284	-128.809842	197.915199	560.808461	-145.983335	10.092876	406.502568	-133.059894	35.959228	402.034640	-218.544892	-63.418975	406.041354	-178.372181	194.049710	243.576965	-158.091275	120.481390	258.011679	-110.223899	90.057690	1052.361519	-478.499943	172.933012	1027.120853	-481.187558	192.594180	1058.090708	-474.042540	233.672059	961.778850	-481.212315	355.563316	856.204768	-460.436912	391.041846	840.066344	-350.642034	346.721227	735.444903	-479.232088	347.591480	650.299692	-459.149825	306.905503	571.918832	-456.398071	376.491990	647.127561	-432.121540	262.983244	432.691375	-449.722171	263.572317	442.400461	-362.798430	186.857535	399.490864	-408.593796	487.311150	421.674685	-419.367105	420.492288	376.328616	-479.843930	-184.712225	929.519475	-286.359695	-17.428318	79.061625	-485.429892	-17.446542	79.255927	-84.734796	
